<!DOCTYPE svg PUBLIC "-//W3C//DTD SVG 20010904//EN" "http://www.w3.org/TR/2001/REC-SVG-20010904/DTD/svg10.dtd">
<svg version="1.0" xmlns="http://www.w3.org/2000/svg" width="910px" height="675px" viewBox="0 0 9100 6750" preserveAspectRatio="xMidYMid meet">
<g id="layer101" fill="#010101" stroke="none">
 <path d="M3714 6513 c-17 -27 -50 -83 -73 -126 -148 -278 -153 -293 -155 -515 l-1 -172 -30 7 c-16 5 -95 7 -175 5 l-145 -3 -67 41 c-37 22 -70 40 -73 40 -9 0 5 -77 21 -116 9 -21 14 -72 14 -136 1 -58 9 -142 19 -193 10 -49 17 -91 17 -92 -1 -1 -21 5 -45 13 -57 19 -166 33 -266 34 -97 0 -192 21 -243 53 -44 29 -82 42 -82 29 0 -5 25 -46 56 -92 66 -99 80 -149 88 -317 l6 -122 -48 4 c-26 3 -85 7 -132 9 -103 6 -131 15 -232 78 -43 26 -80 48 -83 48 -9 0 -5 -49 4 -54 19 -12 48 -84 59 -146 6 -36 14 -118 17 -182 3 -65 12 -138 20 -164 l14 -46 -37 5 c-20 3 -80 11 -132 17 -52 7 -140 18 -195 25 -55 7 -101 12 -103 10 -2 -2 3 -34 12 -72 9 -37 23 -117 32 -178 8 -60 18 -120 21 -132 4 -19 1 -23 -16 -23 -12 0 -34 6 -49 14 -34 17 -102 31 -102 21 0 -5 24 -33 52 -63 l53 -56 -35 -8 c-129 -32 -250 -86 -333 -149 -64 -49 -137 -122 -137 -136 0 -10 32 -13 139 -13 126 0 147 -3 213 -26 110 -40 253 -124 246 -145 -4 -11 -268 -199 -279 -199 -5 0 -9 -7 -9 -15 0 -13 3 -14 23 -3 15 9 64 13 157 12 117 0 151 -5 255 -32 99 -25 255 -82 297 -108 6 -4 -3 -13 -20 -20 -84 -35 -376 -244 -361 -258 3 -3 45 10 94 29 88 34 93 34 249 35 131 0 181 -4 285 -25 118 -24 223 -57 280 -89 24 -14 23 -15 -56 -55 -117 -58 -280 -152 -327 -186 -30 -22 -11 -30 36 -15 132 40 277 51 421 30 224 -33 397 -86 397 -121 0 -4 -42 -34 -92 -65 -51 -31 -106 -67 -121 -78 -29 -21 -90 -97 -83 -103 1 -2 44 10 94 26 186 59 500 64 682 11 117 -34 117 -33 -4 -133 -111 -93 -176 -163 -176 -191 0 -18 11 -17 100 9 25 7 68 17 95 23 28 6 82 17 120 26 149 32 235 41 377 41 100 0 151 -4 159 -12 9 -9 -4 -35 -57 -113 -134 -198 -174 -265 -160 -268 7 -2 38 11 67 28 112 63 187 99 289 135 211 74 333 98 505 98 130 1 152 -3 275 -49 65 -24 184 -14 350 30 74 20 146 38 160 42 14 3 84 23 155 44 72 20 164 45 205 54 353 80 317 66 412 165 46 47 92 99 103 114 18 25 31 30 135 48 260 44 389 75 500 119 144 57 199 72 300 81 107 9 161 16 193 25 13 4 17 17 17 59 0 62 -32 131 -91 197 -21 23 -36 44 -34 46 7 8 -28 107 -51 143 -13 21 -48 57 -76 80 -29 23 -67 62 -84 88 -37 55 -53 70 -108 96 -35 17 -47 32 -86 108 -60 118 -122 178 -214 206 -38 12 -81 21 -98 21 -27 0 -29 -3 -25 -28 3 -16 22 -52 42 -81 21 -28 39 -68 42 -87 5 -40 8 -40 -62 6 -53 34 -110 57 -162 64 l-43 6 -1 -47 c-2 -78 -5 -92 -24 -113 -32 -35 -66 -25 -127 35 -67 67 -90 70 -112 15 -9 -22 -16 -44 -16 -49 0 -5 -7 -25 -15 -45 -18 -43 -24 -41 -100 28 -87 79 -116 74 -196 -33 -29 -39 -58 -71 -66 -71 -7 0 -29 22 -50 50 -29 39 -43 50 -64 50 -39 0 -84 -42 -113 -105 -14 -30 -28 -55 -31 -55 -21 0 -65 45 -79 80 -23 59 -20 87 13 121 27 26 36 29 94 29 45 0 68 -5 77 -15 7 -8 23 -15 35 -15 30 0 48 45 43 109 -3 50 -3 51 26 51 20 0 39 -11 62 -35 18 -19 35 -35 38 -35 2 0 21 26 40 58 24 40 38 76 42 115 4 32 12 57 18 57 29 0 92 -24 134 -51 25 -16 51 -29 58 -29 25 0 55 66 56 124 1 31 6 56 11 56 6 0 27 -18 48 -40 21 -22 42 -40 47 -40 11 0 63 57 85 93 26 41 52 34 122 -33 61 -59 102 -80 157 -80 26 0 28 3 28 38 -1 36 -20 127 -36 167 -7 18 -41 71 -54 85 -3 3 -29 31 -58 61 -47 49 -55 64 -72 135 -34 138 -83 190 -314 337 -79 50 -92 65 -98 111 -6 44 -22 34 -37 -23 -12 -44 -12 -66 -3 -123 19 -109 19 -108 -35 -108 -52 0 -122 18 -173 45 -17 9 -35 14 -38 10 -3 -3 9 -35 27 -71 29 -58 33 -72 28 -117 -8 -66 -46 -113 -122 -152 -54 -28 -67 -30 -159 -29 -94 0 -106 2 -176 35 -217 102 -379 319 -435 582 -8 38 -15 95 -15 128 0 36 -4 59 -11 59 -22 0 -72 -66 -106 -140 l-35 -75 -50 54 c-92 99 -125 207 -134 434 -4 92 -11 167 -16 167 -9 0 -98 -181 -98 -200 0 -6 -12 -32 -27 -59 -25 -48 -27 -49 -49 -34 -51 33 -138 183 -180 311 -20 63 -24 94 -24 201 1 69 7 155 15 191 7 36 12 66 10 68 -8 8 -46 -21 -78 -60 -34 -42 -97 -159 -97 -182 0 -6 -7 -19 -14 -29 -13 -17 -16 -16 -49 12 -34 31 -100 143 -118 204 -33 107 -48 183 -54 262 -8 112 -23 185 -39 185 -7 0 -26 -26 -43 -57 -17 -32 -46 -86 -64 -120 -21 -40 -40 -63 -51 -63 -9 0 -34 17 -55 38 -58 59 -57 58 -103 167 -25 60 -48 203 -52 317 -2 71 -7 118 -13 118 -6 0 -24 -21 -41 -47z m8 -399 c21 -62 67 -133 140 -219 38 -44 71 -91 75 -105 3 -13 1 -61 -5 -105 -7 -45 -12 -105 -12 -134 l0 -53 -57 7 c-90 11 -159 54 -216 134 -56 77 -69 123 -69 243 1 121 24 222 75 326 l31 63 12 -59 c7 -32 18 -76 26 -98z m391 -193 c-9 -35 29 -184 69 -266 21 -44 63 -127 93 -185 34 -65 55 -118 55 -138 l0 -34 -52 47 c-56 50 -101 74 -182 97 -44 12 -51 18 -59 48 -14 55 25 334 58 413 16 40 26 49 18 18z m-680 -306 c134 -31 195 -98 227 -248 11 -53 17 -243 8 -252 -2 -3 -29 5 -59 16 -39 15 -90 23 -184 28 -112 6 -137 11 -175 32 -85 47 -122 149 -118 330 l3 122 120 -7 c66 -4 146 -13 178 -21z m472 -214 c193 -44 274 -80 342 -154 69 -75 79 -105 86 -254 4 -73 5 -133 3 -133 -25 0 -138 46 -160 65 -35 30 -116 61 -193 74 -106 17 -161 49 -193 111 -17 34 -20 59 -20 180 0 140 0 140 23 136 12 -3 63 -14 112 -25z m603 -131 c18 -59 89 -204 119 -240 10 -13 44 -53 76 -91 l58 -68 -3 -61 -3 -61 -82 40 c-44 22 -101 43 -125 47 -85 13 -93 22 -113 129 -19 104 -17 251 5 370 18 91 21 95 37 40 8 -27 22 -75 31 -105z m-1541 -69 c106 -29 131 -84 143 -307 4 -89 13 -171 19 -182 11 -21 10 -21 -111 -16 -154 7 -215 24 -272 78 -59 55 -77 118 -85 301 l-6 140 135 -1 c74 -1 154 -6 177 -13z m423 -122 c263 -37 322 -77 299 -207 -5 -31 -17 -85 -26 -119 -15 -60 -15 -168 2 -205 6 -16 0 -17 -77 -12 -151 10 -282 59 -327 122 -50 71 -60 120 -58 287 l2 157 55 -7 c30 -3 89 -11 130 -16z m528 -160 c37 -11 90 -26 117 -35 72 -21 112 -48 133 -91 26 -51 42 -169 42 -303 l0 -110 -87 0 c-210 0 -309 43 -360 159 -21 48 -21 219 1 326 23 113 20 108 56 90 17 -9 61 -25 98 -36z m986 -21 c43 -125 111 -258 169 -329 42 -53 47 -64 47 -109 l0 -49 -57 34 c-32 19 -81 42 -108 50 -50 14 -50 14 -78 88 -24 65 -27 88 -27 189 0 105 12 178 29 178 3 0 15 -24 25 -52z m-2413 -116 c41 -10 95 -29 120 -43 69 -38 86 -85 123 -357 2 -16 -1 -22 -10 -18 -7 3 -78 8 -156 11 -285 13 -313 40 -333 333 l-7 92 94 0 c55 0 124 -8 169 -18z m1909 -12 c209 -25 263 -42 318 -100 26 -27 79 -136 70 -145 -8 -9 -95 24 -148 55 -107 63 -124 58 -73 -23 25 -39 28 -53 35 -192 4 -82 10 -156 13 -162 6 -16 8 -16 -78 3 -134 30 -204 87 -235 189 -17 55 -32 201 -32 309 0 87 0 88 23 82 12 -4 60 -11 107 -16z m-1395 -151 c152 -18 206 -45 248 -124 19 -35 22 -60 25 -211 l4 -172 -44 9 c-160 30 -220 45 -273 69 -67 30 -87 49 -109 102 -17 40 -51 204 -61 290 l-6 58 63 -5 c35 -3 104 -10 153 -16z m2265 -154 c105 -202 93 -184 180 -277 66 -71 195 -163 265 -190 88 -34 167 -41 250 -24 154 32 262 117 306 241 l23 65 72 0 c95 0 118 -10 140 -59 11 -22 23 -41 27 -41 4 0 14 15 22 34 18 42 11 88 -22 136 -12 19 -23 38 -23 42 0 11 58 -9 108 -38 95 -55 149 -138 167 -255 l7 -46 -129 -65 c-379 -192 -853 -512 -894 -603 -7 -14 -8 -2 -5 36 2 31 11 70 19 85 38 76 29 94 -23 47 -19 -18 -40 -57 -58 -108 l-29 -79 -27 29 c-14 16 -29 38 -31 49 -30 134 -52 210 -62 214 -9 2 -13 -8 -14 -30 0 -18 -8 -64 -18 -103 l-18 -69 29 -30 c17 -16 54 -59 83 -95 84 -106 239 -257 318 -309 145 -99 304 -162 403 -162 87 0 126 21 64 35 -16 4 -32 10 -35 15 -3 4 40 22 95 40 55 17 162 63 238 102 336 173 380 189 525 196 89 4 101 2 150 -22 50 -24 117 -96 117 -125 0 -13 68 -81 80 -81 19 0 60 -69 75 -125 8 -32 21 -62 27 -67 8 -4 -4 -8 -29 -8 -37 0 -44 -4 -58 -31 -20 -37 -47 -71 -100 -121 -109 -104 -264 -153 -485 -153 -221 0 -342 34 -630 174 -101 49 -118 60 -95 63 40 4 45 28 6 28 -137 0 -526 175 -661 297 -49 45 -69 73 -104 147 -23 50 -49 110 -56 133 -7 23 -26 54 -41 69 -48 46 -47 34 8 -111 8 -22 19 -49 23 -60 70 -183 128 -236 420 -378 102 -50 203 -102 224 -115 l40 -25 -23 -18 c-13 -11 -30 -19 -37 -19 -25 0 -66 -32 -171 -131 -103 -99 -138 -119 -208 -119 -45 0 -75 -11 -75 -26 0 -8 3 -13 8 -12 4 1 43 -3 87 -10 44 -6 175 -14 290 -17 116 -3 266 -11 336 -17 l125 -12 -4 -30 c-5 -35 -42 -80 -87 -104 -41 -22 -178 -21 -275 2 -41 9 -102 24 -136 32 -70 16 -171 18 -208 4 -48 -18 -28 -30 50 -30 77 0 139 -20 302 -97 61 -29 59 -38 -16 -67 -34 -13 -81 -16 -245 -16 -142 0 -218 -4 -255 -14 -53 -15 -102 -40 -102 -54 0 -4 43 -5 95 -4 106 4 147 -3 105 -20 -28 -10 -155 -33 -240 -43 -56 -6 -62 -5 -285 61 -79 23 -109 26 -245 27 -123 1 -166 -2 -210 -16 -30 -10 -70 -22 -88 -28 -19 -6 -62 -19 -98 -29 -63 -18 -64 -18 -54 0 16 30 102 108 133 121 50 21 32 37 -50 46 -168 18 -601 4 -733 -23 l-25 -6 23 25 c28 30 102 67 209 104 46 15 82 32 80 37 -4 12 -69 29 -192 51 -55 10 -143 28 -195 41 -52 12 -162 28 -243 35 l-147 12 32 20 c83 50 252 97 350 97 60 0 62 -1 107 -49 25 -27 56 -52 69 -56 19 -6 22 -3 22 24 0 19 -9 39 -24 53 -25 24 -93 127 -139 210 l-26 47 87 27 c77 24 104 27 232 28 141 1 146 0 190 -26 49 -30 60 -33 60 -18 0 11 -39 70 -52 80 -4 3 -19 33 -34 65 -21 49 -25 67 -18 100 4 22 8 83 8 135 l1 95 140 -3 c180 -3 230 -14 297 -61 81 -58 120 -64 63 -11 -53 50 -59 73 -61 250 -1 113 -7 178 -17 207 -9 27 -10 40 -3 38 6 -2 76 -13 156 -25 228 -34 260 -44 310 -96 23 -24 46 -44 52 -44 18 0 -1 92 -32 155 -38 77 -49 139 -44 245 3 56 0 108 -10 149 l-15 63 22 -6 c12 -4 76 -20 142 -37 195 -50 272 -100 309 -201 17 -45 32 -65 42 -56 8 9 -18 123 -36 159 -24 46 -81 96 -139 121 -113 48 -122 57 -143 143 -11 48 -26 387 -16 377 4 -4 30 -52 58 -107z m-1720 -5 c189 -20 230 -55 273 -230 17 -71 42 -200 52 -269 6 -43 6 -43 -22 -36 -15 3 -86 17 -158 30 -150 27 -226 53 -267 92 -54 52 -62 82 -63 264 l-1 166 51 -4 c27 -2 88 -8 135 -13z m1320 -35 c170 -35 251 -101 285 -232 20 -75 20 -73 -17 -66 -57 10 -127 51 -143 83 -28 54 -65 28 -65 -45 0 -32 -3 -36 -17 -30 -61 26 -147 55 -163 55 -34 0 -48 39 -56 153 l-7 109 59 -7 c33 -4 88 -13 124 -20z m-2713 -101 c37 -10 72 -26 87 -40 28 -29 46 -92 46 -164 0 -44 -2 -51 -17 -46 -77 23 -162 28 -256 16 -66 -9 -104 -10 -115 -4 -24 15 -49 100 -54 186 l-5 77 126 -5 c69 -3 154 -12 188 -20z m1915 -29 c106 -1 131 -5 157 -21 30 -19 118 -121 139 -160 13 -25 58 -335 48 -334 -97 7 -292 43 -329 60 -73 35 -136 120 -152 208 -8 45 -24 175 -28 220 -2 40 -1 43 18 36 11 -4 77 -8 147 -9z m-1467 -8 c103 -4 145 -17 192 -60 18 -16 20 -23 11 -34 -9 -11 -7 -20 9 -41 38 -51 51 -88 58 -160 l8 -72 -79 0 c-42 0 -118 -5 -166 -11 -102 -13 -148 -5 -198 38 -56 47 -72 93 -78 228 l-5 122 74 -3 c41 -2 119 -5 174 -7z m2102 -187 c238 -32 262 -58 273 -290 4 -81 10 -152 14 -159 6 -9 -11 -11 -71 -6 -219 17 -377 69 -417 137 -11 18 -21 65 -26 126 -5 53 -11 104 -14 112 -3 8 -10 35 -14 60 l-9 46 66 -4 c36 -2 125 -12 198 -22z m-1697 -10 c102 -20 247 -62 299 -88 50 -24 59 -34 87 -89 35 -72 60 -175 70 -287 6 -73 5 -78 -12 -73 -59 17 -158 37 -216 42 -137 13 -214 52 -250 124 -17 35 -24 79 -34 200 -7 86 -16 165 -20 175 -6 16 -4 18 12 12 10 -4 39 -11 64 -16z m-788 -115 c31 -8 76 -26 101 -41 39 -24 43 -30 34 -45 -10 -16 -5 -24 31 -55 41 -35 62 -66 76 -111 7 -21 4 -23 -31 -23 -21 0 -70 -7 -108 -15 -106 -22 -222 -20 -264 6 -18 11 -35 18 -38 15 -2 -2 0 -21 6 -41 l10 -38 -26 24 c-56 53 -137 193 -161 281 l-10 37 66 6 c37 4 72 8 77 10 28 10 188 3 237 -10z m4666 -30 c53 -60 116 -195 92 -195 -5 0 -38 26 -72 58 -35 32 -91 81 -126 109 l-63 52 33 10 c70 20 93 14 136 -34z m-3238 -56 c132 -21 250 -72 311 -135 l33 -34 7 -134 c4 -74 9 -139 13 -144 3 -5 9 -27 14 -50 l10 -41 -47 5 c-217 24 -285 40 -346 82 -74 51 -96 118 -115 340 -5 62 -12 117 -15 122 -6 9 19 7 135 -11z m3037 -86 c-11 -11 -62 24 -75 50 -16 33 -14 37 30 46 l33 7 8 -49 c5 -27 6 -51 4 -54z m-4879 55 c37 -73 75 -135 140 -228 50 -71 59 -90 45 -91 -48 -3 -83 6 -138 33 -33 17 -77 40 -99 50 -21 11 -98 40 -170 64 -72 25 -137 47 -145 49 -20 7 2 31 67 72 59 38 111 59 192 78 82 19 84 19 108 -27z m999 -24 c63 -21 85 -43 102 -100 8 -26 34 -71 58 -100 23 -30 43 -55 43 -58 0 -2 -19 0 -42 4 -24 5 -44 7 -46 5 -8 -8 21 -46 55 -72 20 -15 46 -50 59 -78 l24 -50 -123 -7 c-160 -9 -190 -4 -232 38 -38 38 -62 87 -106 217 -16 50 -40 112 -53 138 l-23 48 41 15 c56 20 184 20 243 0z m3681 -81 c-3 -46 -4 -48 -33 -47 -16 1 -47 9 -69 18 -34 14 -37 18 -25 33 18 21 67 42 102 43 27 0 28 -1 25 -47z m-2263 -17 c146 -11 212 -29 252 -67 19 -19 41 -47 49 -62 20 -38 28 -144 19 -250 l-7 -87 -121 0 c-136 0 -200 14 -254 56 -52 39 -77 124 -94 306 -5 58 -12 113 -15 121 -5 14 0 14 38 3 24 -7 84 -16 133 -20z m1998 -129 c-5 -38 -9 -47 -22 -43 -9 3 -35 8 -58 11 -38 6 -42 9 -33 26 12 22 43 40 85 49 17 4 31 6 32 6 0 -1 -1 -22 -4 -49z m-3694 -44 c23 -71 70 -163 105 -202 l21 -24 -47 6 c-61 8 -62 -5 -7 -58 22 -22 46 -52 53 -67 l14 -27 -67 24 c-138 50 -238 122 -278 199 -23 45 -105 170 -116 178 -6 3 21 9 59 13 38 4 87 11 109 15 22 4 61 8 87 9 l46 1 21 -67z m4699 -107 c25 -38 54 -105 48 -112 -1 -1 -22 -4 -48 -7 -45 -6 -48 -5 -48 16 0 25 -33 125 -57 170 l-15 29 44 -23 c25 -14 56 -44 76 -73z m-1196 42 c2 -13 2 -33 0 -44 -4 -21 -5 -21 -51 -6 l-47 16 25 28 c30 35 68 37 73 6z m-3834 -46 c28 -58 127 -164 197 -211 50 -33 50 -33 15 -26 -19 4 -82 23 -140 42 -125 41 -166 49 -330 68 -150 18 -182 24 -175 35 12 19 160 76 335 128 65 19 74 16 98 -36z m1195 28 c114 -32 177 -78 210 -150 25 -54 47 -159 47 -224 l0 -59 -135 7 c-74 4 -150 12 -168 18 -78 26 -126 101 -214 333 -8 22 -19 50 -24 63 -5 13 -9 25 -9 27 0 3 51 5 113 5 81 0 131 -5 180 -20z m3598 -101 c67 -67 46 -95 -59 -82 l-54 6 7 56 c4 31 9 59 11 62 9 15 60 -7 95 -42z m-343 -58 c21 -13 10 -43 -20 -60 -35 -20 -39 -14 -25 32 12 38 21 43 45 28z m-3579 -37 c21 -17 36 -44 47 -82 17 -58 43 -88 122 -143 23 -17 42 -34 42 -39 0 -6 -36 -10 -80 -10 -92 0 -97 -7 -45 -60 23 -23 38 -50 42 -73 l6 -37 -83 0 c-95 0 -178 21 -207 53 -27 28 -166 358 -156 368 15 14 168 47 225 48 47 1 62 -3 87 -25z m953 0 c77 -25 107 -82 110 -209 1 -76 -10 -185 -20 -201 -9 -13 -125 -34 -186 -34 -116 0 -162 74 -211 345 -8 44 -18 91 -21 104 l-7 24 144 -7 c83 -4 164 -13 191 -22z m2373 -25 c35 -39 36 -42 20 -59 -28 -31 -79 -43 -120 -30 -19 6 -35 17 -35 23 0 17 39 79 59 94 26 20 36 16 76 -28z m488 -8 c18 -6 18 -7 0 -23 -10 -9 -42 -23 -72 -32 -30 -9 -72 -27 -95 -40 -23 -13 -57 -33 -76 -43 -19 -11 -60 -34 -91 -52 -101 -57 -211 -91 -292 -91 -40 0 -89 3 -110 7 l-38 6 44 46 c25 25 48 57 52 69 6 21 12 23 38 18 90 -17 110 -18 154 -5 27 7 62 21 78 31 17 9 62 27 100 39 39 12 82 28 97 35 65 34 171 51 211 35z m-786 -64 c39 -37 45 -48 40 -70 -7 -27 -62 -67 -92 -67 -27 0 -55 30 -55 59 0 39 32 121 48 121 7 0 34 -20 59 -43z m-3372 -112 c12 -33 31 -82 43 -109 12 -27 21 -51 19 -53 -2 -1 -37 6 -78 17 -101 28 -287 67 -384 80 -44 6 -88 14 -98 17 -17 5 -17 6 3 20 67 47 259 92 384 90 l89 -2 22 -60z m925 -130 c32 -16 140 -121 140 -136 0 -10 -112 -18 -172 -12 -37 3 -58 2 -58 -5 0 -6 16 -30 36 -54 46 -54 114 -154 114 -166 0 -9 -115 -22 -192 -22 -71 0 -122 50 -181 175 -29 60 -74 211 -66 219 11 11 163 24 249 22 68 -2 105 -8 130 -21z m4110 -234 c5 -20 10 -48 10 -63 l0 -28 -89 0 c-49 0 -96 -3 -105 -6 -13 -5 -14 -2 -5 25 14 39 35 51 91 51 39 0 91 22 78 32 -3 2 -17 12 -33 21 -23 15 -26 21 -17 37 10 20 12 19 35 -6 14 -15 29 -43 35 -63z m-4499 -12 c13 -33 41 -82 61 -110 40 -52 38 -57 -14 -35 -127 55 -244 95 -308 106 -41 7 -101 19 -134 28 l-58 15 28 15 c54 28 129 40 265 41 l136 1 24 -61z m2989 -30 c21 -6 50 -22 66 -34 l28 -22 -68 -38 c-128 -71 -282 -124 -364 -125 -20 0 -21 3 -12 20 32 60 173 174 244 196 52 16 61 16 106 3z m360 -148 c41 -13 84 -26 96 -31 18 -7 155 -42 209 -53 11 -3 -33 -5 -97 -6 l-117 -1 -33 -42 c-19 -24 -40 -56 -48 -72 -18 -36 -88 -112 -95 -104 -3 3 4 24 16 47 18 35 20 51 15 104 l-7 62 45 23 c26 12 46 26 46 32 0 18 -81 11 -115 -10 l-32 -20 -25 59 -25 59 46 -13 c25 -6 80 -22 121 -34z m-234 2 c7 -10 14 -30 14 -44 0 -24 -5 -27 -46 -33 -64 -8 -146 -7 -162 2 -8 6 7 16 44 32 31 12 73 31 93 41 45 23 41 22 57 2z"/>
 <path d="M6453 4089 c-78 -28 -212 -101 -467 -253 -125 -75 -232 -136 -236 -136 -9 0 -45 -118 -38 -125 11 -11 37 8 48 34 11 27 43 48 284 185 99 55 221 121 381 206 168 90 175 93 175 102 0 15 -94 7 -147 -13z"/>
 <path d="M4973 3175 c-50 -21 -42 -41 19 -49 72 -10 123 -41 159 -98 17 -26 33 -48 36 -48 15 0 42 50 43 79 0 42 -48 89 -117 114 -57 20 -97 21 -140 2z"/>
 <path d="M7250 3161 c-77 -24 -179 -96 -310 -221 -53 -50 -109 -92 -150 -113 -64 -32 -66 -32 -212 -32 -81 0 -148 -3 -148 -7 0 -11 60 -41 110 -55 176 -48 380 30 527 204 158 185 179 199 284 189 78 -8 93 5 34 30 -37 15 -94 17 -135 5z"/>
 <path d="M5310 2997 c-43 -31 -49 -32 -145 -32 -55 0 -116 6 -136 13 -79 28 -202 42 -264 32 -131 -23 -197 -67 -422 -283 -143 -136 -186 -171 -253 -206 -82 -43 -160 -112 -160 -141 0 -10 22 -26 58 -42 66 -31 121 -44 212 -53 124 -11 180 -26 180 -47 0 -11 -11 -22 -25 -28 -14 -5 -25 -17 -25 -28 0 -17 7 -19 74 -14 76 5 118 -2 266 -45 100 -28 185 -32 256 -10 l52 15 6 -31 c7 -33 32 -67 50 -67 6 0 19 20 29 45 11 25 33 56 50 71 93 76 167 160 203 230 52 104 26 118 -43 23 -98 -133 -153 -174 -276 -206 -74 -19 -228 -13 -294 11 -23 8 -102 43 -175 78 l-133 63 -155 0 c-162 0 -193 7 -205 45 -11 33 12 56 85 86 92 37 231 143 376 284 171 166 205 176 479 140 196 -25 266 -19 334 30 31 23 71 77 71 97 0 10 -31 -3 -70 -30z"/>
 <path d="M7457 2933 c-94 -117 -182 -184 -282 -216 -61 -20 -224 -37 -351 -37 -52 0 -94 -4 -94 -8 0 -4 24 -17 53 -27 73 -28 285 -27 372 0 121 38 240 135 328 268 43 65 53 87 38 87 -5 0 -35 -30 -64 -67z"/>
 <path d="M5365 2830 c-4 -6 -33 -24 -65 -40 -54 -27 -68 -30 -160 -30 -56 0 -120 4 -143 9 -23 5 -71 15 -106 22 l-65 13 -30 -39 c-98 -124 -131 -142 -177 -96 l-31 31 -18 -22 c-25 -32 -77 -61 -85 -48 -11 18 -23 10 -30 -21 -4 -18 -3 -35 3 -41 15 -15 55 -2 91 28 17 14 31 22 31 16 0 -12 45 -32 73 -32 39 0 121 46 162 91 l41 44 59 -10 c33 -5 114 -10 180 -10 107 0 125 3 169 24 51 25 126 90 126 109 0 15 -17 16 -25 2z"/>
 <path d="M5600 2802 c0 -4 6 -17 14 -28 39 -55 27 -144 -25 -188 -26 -22 -137 -71 -145 -64 -9 10 26 55 60 78 38 27 62 57 52 67 -3 3 -25 -5 -50 -16 -25 -13 -79 -26 -123 -31 -43 -4 -94 -15 -113 -23 -37 -16 -94 -66 -123 -106 -24 -35 -34 -17 -14 24 28 59 22 68 -25 36 -65 -43 -216 -106 -227 -95 -2 2 10 22 28 45 18 22 31 43 28 45 -3 3 -38 -9 -78 -26 -76 -34 -181 -56 -129 -28 14 7 26 21 28 30 3 14 -3 14 -60 2 -35 -7 -96 -13 -136 -14 -80 0 -142 -24 -162 -61 -16 -29 -7 -33 42 -21 24 6 59 14 80 17 l36 6 -13 -43 c-7 -24 -16 -51 -20 -60 -10 -24 -2 -23 48 9 57 37 105 59 150 67 21 4 46 10 54 13 11 4 14 3 9 -6 -9 -14 1 -100 14 -121 7 -11 22 -2 68 42 54 52 101 80 158 94 17 4 24 0 30 -18 9 -31 52 -98 62 -98 4 0 17 21 27 48 37 89 128 159 231 176 l40 7 0 -48 -1 -48 63 2 c79 3 139 30 204 91 90 84 115 176 61 227 -23 21 -38 25 -85 25 -32 0 -58 -3 -58 -8z"/>
 <path d="M3165 1135 c382 -74 732 -182 970 -300 168 -83 275 -160 347 -250 63 -77 87 -144 97 -269 l8 -101 2 102 c1 125 21 184 89 268 72 90 179 167 347 250 238 118 588 226 970 300 l130 25 -760 -7 c-907 -8 -663 -8 -1570 0 l-760 7 130 -25z"/>
 </g>

</svg>